<?xml version="1.0" encoding="UTF-8" standalone="no"?>
<!DOCTYPE svg PUBLIC "-//W3C//DTD SVG 1.1//EN"
 "http://www.w3.org/Graphics/SVG/1.1/DTD/svg11.dtd">
<!-- Generated by graphviz version 9.0.0 (20230911.1827)
 -->
<!-- Title: VulNyxStore Pages: 1 -->
<svg width="689pt" height="1274pt"
 viewBox="0.00 0.00 689.00 1273.55" xmlns="http://www.w3.org/2000/svg" xmlns:xlink="http://www.w3.org/1999/xlink">
<g id="graph0" class="graph" transform="scale(1 1) rotate(0) translate(4 1269.55)">
<title>VulNyxStore</title>
<polygon fill="white" stroke="none" points="-4,4 -4,-1269.55 685,-1269.55 685,4 -4,4"/>
<g id="clust1" class="cluster">
<title>cluster_01</title>
<path fill="#fdfdfd" stroke="#555555" stroke-dasharray="5,2" d="M24,-1047.7C24,-1047.7 188,-1047.7 188,-1047.7 194,-1047.7 200,-1053.7 200,-1059.7 200,-1059.7 200,-1245.55 200,-1245.55 200,-1251.55 194,-1257.55 188,-1257.55 188,-1257.55 24,-1257.55 24,-1257.55 18,-1257.55 12,-1251.55 12,-1245.55 12,-1245.55 12,-1059.7 12,-1059.7 12,-1053.7 18,-1047.7 24,-1047.7"/>
<text text-anchor="middle" x="106" y="-1242.15" font-family="Sans-Serif" font-size="12.00">FASE 1: RECOPILACIÓN</text>
</g>
<g id="clust2" class="cluster">
<title>cluster_02</title>
<path fill="#fdfdfd" stroke="#555555" stroke-dasharray="5,2" d="M20,-598.25C20,-598.25 192,-598.25 192,-598.25 198,-598.25 204,-604.25 204,-610.25 204,-610.25 204,-1012.7 204,-1012.7 204,-1018.7 198,-1024.7 192,-1024.7 192,-1024.7 20,-1024.7 20,-1024.7 14,-1024.7 8,-1018.7 8,-1012.7 8,-1012.7 8,-610.25 8,-610.25 8,-604.25 14,-598.25 20,-598.25"/>
<text text-anchor="middle" x="106" y="-1009.3" font-family="Sans-Serif" font-size="12.00">FASE 2: ANÁLISE</text>
</g>
<g id="clust3" class="cluster">
<title>cluster_03</title>
<path fill="#fdfdfd" stroke="#555555" stroke-dasharray="5,2" d="M58,-365.4C58,-365.4 402,-365.4 402,-365.4 408,-365.4 414,-371.4 414,-377.4 414,-377.4 414,-563.25 414,-563.25 414,-569.25 408,-575.25 402,-575.25 402,-575.25 58,-575.25 58,-575.25 52,-575.25 46,-569.25 46,-563.25 46,-563.25 46,-377.4 46,-377.4 46,-371.4 52,-365.4 58,-365.4"/>
<text text-anchor="middle" x="230" y="-559.85" font-family="Sans-Serif" font-size="12.00">FASE 3: EXPLOTACIÓN</text>
</g>
<g id="clust6" class="cluster">
<title>cluster_04</title>
<path fill="#fdfdfd" stroke="#555555" stroke-dasharray="5,2" d="M232,-8C232,-8 661,-8 661,-8 667,-8 673,-14 673,-20 673,-20 673,-314.15 673,-314.15 673,-320.15 667,-326.15 661,-326.15 661,-326.15 232,-326.15 232,-326.15 226,-326.15 220,-320.15 220,-314.15 220,-314.15 220,-20 220,-20 220,-14 226,-8 232,-8"/>
<text text-anchor="middle" x="446.5" y="-310.75" font-family="Sans-Serif" font-size="12.00">FASE 4: POST&#45;EXPLOTACIÓN</text>
</g>
<!-- node_start -->
<g id="node1" class="node">
<title>node_start</title>
<path fill="#e5e5e5" stroke="black" d="M161.28,-1227.3C161.28,-1227.3 50.72,-1227.3 50.72,-1227.3 44.72,-1227.3 38.72,-1221.3 38.72,-1215.3 38.72,-1215.3 38.72,-1176 38.72,-1176 38.72,-1170 44.72,-1164 50.72,-1164 50.72,-1164 161.28,-1164 161.28,-1164 167.28,-1164 173.28,-1170 173.28,-1176 173.28,-1176 173.28,-1215.3 173.28,-1215.3 173.28,-1221.3 167.28,-1227.3 161.28,-1227.3"/>
<text text-anchor="middle" x="106" y="-1199.6" font-family="Sans-Serif" font-size="14.00">Descubrimento</text>
<text text-anchor="middle" x="106" y="-1182.35" font-family="Sans-Serif" font-size="14.00">Rede</text>
</g>
<!-- node_nmap -->
<g id="node2" class="node">
<title>node_nmap</title>
<path fill="#e5e5e5" stroke="black" d="M180.03,-1119C180.03,-1119 31.97,-1119 31.97,-1119 25.97,-1119 19.97,-1113 19.97,-1107 19.97,-1107 19.97,-1067.7 19.97,-1067.7 19.97,-1061.7 25.97,-1055.7 31.97,-1055.7 31.97,-1055.7 180.03,-1055.7 180.03,-1055.7 186.03,-1055.7 192.03,-1061.7 192.03,-1067.7 192.03,-1067.7 192.03,-1107 192.03,-1107 192.03,-1113 186.03,-1119 180.03,-1119"/>
<text text-anchor="middle" x="106" y="-1091.3" font-family="Sans-Serif" font-size="14.00">Nmap Scan</text>
<text text-anchor="middle" x="106" y="-1074.05" font-family="Sans-Serif" font-size="14.00">Ports: 80, 445, 5985</text>
</g>
<!-- node_start&#45;&gt;node_nmap -->
<g id="edge1" class="edge">
<title>node_start&#45;&gt;node_nmap</title>
<path fill="none" stroke="#333333" stroke-width="1.2" d="M106,-1163.74C106,-1163.74 106,-1131.22 106,-1131.22"/>
<polygon fill="#333333" stroke="#333333" stroke-width="1.2" points="109.5,-1131.22 106,-1121.22 102.5,-1131.22 109.5,-1131.22"/>
</g>
<!-- node_dirb -->
<g id="node3" class="node">
<title>node_dirb</title>
<path fill="#e5e5e5" stroke="black" d="M169.53,-994.45C169.53,-994.45 42.47,-994.45 42.47,-994.45 36.47,-994.45 30.47,-988.45 30.47,-982.45 30.47,-982.45 30.47,-943.15 30.47,-943.15 30.47,-937.15 36.47,-931.15 42.47,-931.15 42.47,-931.15 169.53,-931.15 169.53,-931.15 175.53,-931.15 181.53,-937.15 181.53,-943.15 181.53,-943.15 181.53,-982.45 181.53,-982.45 181.53,-988.45 175.53,-994.45 169.53,-994.45"/>
<text text-anchor="middle" x="106" y="-966.75" font-family="Sans-Serif" font-size="14.00">Dirb (Wordlist IIS)</text>
<text text-anchor="middle" x="106" y="-949.5" font-family="Sans-Serif" font-size="14.00">/aspnet_files/</text>
</g>
<!-- node_nmap&#45;&gt;node_dirb -->
<g id="edge12" class="edge">
<title>node_nmap&#45;&gt;node_dirb</title>
<path fill="none" stroke="#333333" stroke-width="1.2" d="M106,-1055.28C106,-1055.28 106,-1006.58 106,-1006.58"/>
<polygon fill="#333333" stroke="#333333" stroke-width="1.2" points="109.5,-1006.58 106,-996.58 102.5,-1006.58 109.5,-1006.58"/>
</g>
<!-- node_upload_dir -->
<g id="node4" class="node">
<title>node_upload_dir</title>
<path fill="#e5e5e5" stroke="black" d="M183.78,-886.15C183.78,-886.15 28.22,-886.15 28.22,-886.15 22.22,-886.15 16.22,-880.15 16.22,-874.15 16.22,-874.15 16.22,-834.85 16.22,-834.85 16.22,-828.85 22.22,-822.85 28.22,-822.85 28.22,-822.85 183.78,-822.85 183.78,-822.85 189.78,-822.85 195.78,-828.85 195.78,-834.85 195.78,-834.85 195.78,-874.15 195.78,-874.15 195.78,-880.15 189.78,-886.15 183.78,-886.15"/>
<text text-anchor="middle" x="106" y="-858.45" font-family="Sans-Serif" font-size="14.00">Directorio Upload</text>
<text text-anchor="middle" x="106" y="-841.2" font-family="Sans-Serif" font-size="14.00">/aspnet_files/uploads/</text>
</g>
<!-- node_dirb&#45;&gt;node_upload_dir -->
<g id="edge2" class="edge">
<title>node_dirb&#45;&gt;node_upload_dir</title>
<path fill="none" stroke="#333333" stroke-width="1.2" d="M106,-930.89C106,-930.89 106,-898.37 106,-898.37"/>
<polygon fill="#333333" stroke="#333333" stroke-width="1.2" points="109.5,-898.37 106,-888.37 102.5,-898.37 109.5,-898.37"/>
</g>
<!-- node_vuln -->
<g id="node5" class="node">
<title>node_vuln</title>
<polygon fill="#ffcccc" stroke="black" stroke-dasharray="5,2" points="189.78,-777.85 22.22,-777.85 22.22,-714.55 189.78,-714.55 189.78,-777.85"/>
<text text-anchor="middle" x="106" y="-750.15" font-family="Sans-Serif" font-size="14.00">Unrestricted Upload</text>
<text text-anchor="middle" x="106" y="-732.9" font-family="Sans-Serif" font-size="14.00">ASPX permitido</text>
</g>
<!-- node_upload_dir&#45;&gt;node_vuln -->
<g id="edge3" class="edge">
<title>node_upload_dir&#45;&gt;node_vuln</title>
<path fill="none" stroke="#333333" stroke-width="1.2" d="M106,-822.59C106,-822.59 106,-790.07 106,-790.07"/>
<polygon fill="#333333" stroke="#333333" stroke-width="1.2" points="109.5,-790.07 106,-780.07 102.5,-790.07 109.5,-790.07"/>
</g>
<!-- node_msfvenom -->
<g id="node6" class="node">
<title>node_msfvenom</title>
<path fill="#e5e5e5" stroke="black" d="M173.65,-669.55C173.65,-669.55 38.35,-669.55 38.35,-669.55 32.35,-669.55 26.35,-663.55 26.35,-657.55 26.35,-657.55 26.35,-618.25 26.35,-618.25 26.35,-612.25 32.35,-606.25 38.35,-606.25 38.35,-606.25 173.65,-606.25 173.65,-606.25 179.65,-606.25 185.65,-612.25 185.65,-618.25 185.65,-618.25 185.65,-657.55 185.65,-657.55 185.65,-663.55 179.65,-669.55 173.65,-669.55"/>
<text text-anchor="middle" x="106" y="-641.85" font-family="Sans-Serif" font-size="14.00">Msfvenom</text>
<text text-anchor="middle" x="106" y="-624.6" font-family="Sans-Serif" font-size="14.00">Generar shell.aspx</text>
</g>
<!-- node_vuln&#45;&gt;node_msfvenom -->
<g id="edge4" class="edge">
<title>node_vuln&#45;&gt;node_msfvenom</title>
<path fill="none" stroke="#333333" stroke-width="1.2" d="M106,-714.29C106,-714.29 106,-681.77 106,-681.77"/>
<polygon fill="#333333" stroke="#333333" stroke-width="1.2" points="109.5,-681.77 106,-671.77 102.5,-681.77 109.5,-681.77"/>
</g>
<!-- node_upload_file -->
<g id="node7" class="node">
<title>node_upload_file</title>
<path fill="#e5e5e5" stroke="black" d="M146.28,-545C146.28,-545 65.72,-545 65.72,-545 59.72,-545 53.73,-539 53.73,-533 53.73,-533 53.73,-493.7 53.73,-493.7 53.73,-487.7 59.73,-481.7 65.72,-481.7 65.72,-481.7 146.28,-481.7 146.28,-481.7 152.28,-481.7 158.28,-487.7 158.28,-493.7 158.28,-493.7 158.28,-533 158.28,-533 158.28,-539 152.28,-545 146.28,-545"/>
<text text-anchor="middle" x="106" y="-517.3" font-family="Sans-Serif" font-size="14.00">Upload File</text>
<text text-anchor="middle" x="106" y="-500.05" font-family="Sans-Serif" font-size="14.00">shell.aspx</text>
</g>
<!-- node_msfvenom&#45;&gt;node_upload_file -->
<g id="edge13" class="edge">
<title>node_msfvenom&#45;&gt;node_upload_file</title>
<path fill="none" stroke="#333333" stroke-width="1.2" d="M106,-605.83C106,-605.83 106,-557.13 106,-557.13"/>
<polygon fill="#333333" stroke="#333333" stroke-width="1.2" points="109.5,-557.13 106,-547.13 102.5,-557.13 109.5,-557.13"/>
</g>
<!-- node_trigger -->
<g id="node8" class="node">
<title>node_trigger</title>
<path fill="#e5e5e5" stroke="black" d="M394.15,-545C394.15,-545 255.85,-545 255.85,-545 249.85,-545 243.85,-539 243.85,-533 243.85,-533 243.85,-493.7 243.85,-493.7 243.85,-487.7 249.85,-481.7 255.85,-481.7 255.85,-481.7 394.15,-481.7 394.15,-481.7 400.15,-481.7 406.15,-487.7 406.15,-493.7 406.15,-493.7 406.15,-533 406.15,-533 406.15,-539 400.15,-545 394.15,-545"/>
<text text-anchor="middle" x="325" y="-517.3" font-family="Sans-Serif" font-size="14.00">HTTP Request</text>
<text text-anchor="middle" x="325" y="-500.05" font-family="Sans-Serif" font-size="14.00">/uploads/shell.aspx</text>
</g>
<!-- node_upload_file&#45;&gt;node_trigger -->
<g id="edge5" class="edge">
<title>node_upload_file&#45;&gt;node_trigger</title>
<path fill="none" stroke="#333333" stroke-width="1.2" d="M158.73,-513C158.73,-513 231.83,-513 231.83,-513"/>
<polygon fill="#333333" stroke="#333333" stroke-width="1.2" points="231.83,-516.5 241.83,-513 231.83,-509.5 231.83,-516.5"/>
</g>
<!-- node_shell_iis -->
<g id="node9" class="node">
<title>node_shell_iis</title>
<path fill="#6495ed" stroke="black" d="M391.52,-436.7C391.52,-436.7 258.48,-436.7 258.48,-436.7 252.47,-436.7 246.47,-430.7 246.47,-424.7 246.47,-424.7 246.47,-385.4 246.47,-385.4 246.47,-379.4 252.47,-373.4 258.48,-373.4 258.48,-373.4 391.52,-373.4 391.52,-373.4 397.52,-373.4 403.52,-379.4 403.52,-385.4 403.52,-385.4 403.52,-424.7 403.52,-424.7 403.52,-430.7 397.52,-436.7 391.52,-436.7"/>
<text text-anchor="middle" x="325" y="-409" font-family="Sans-Serif" font-size="14.00" fill="white">Shell Inicial</text>
<text text-anchor="middle" x="325" y="-391.75" font-family="Sans-Serif" font-size="14.00" fill="white">iis apppool\default</text>
</g>
<!-- node_trigger&#45;&gt;node_shell_iis -->
<g id="edge6" class="edge">
<title>node_trigger&#45;&gt;node_shell_iis</title>
<path fill="none" stroke="#333333" stroke-width="1.2" d="M325,-481.44C325,-481.44 325,-448.92 325,-448.92"/>
<polygon fill="#333333" stroke="#333333" stroke-width="1.2" points="328.5,-448.92 325,-438.92 321.5,-448.92 328.5,-448.92"/>
</g>
<!-- node_privs -->
<g id="node10" class="node">
<title>node_privs</title>
<polygon fill="#ffcccc" stroke="black" stroke-dasharray="5,2" points="421.52,-295.9 228.47,-295.9 228.47,-232.6 421.52,-232.6 421.52,-295.9"/>
<text text-anchor="middle" x="325" y="-268.2" font-family="Sans-Serif" font-size="14.00">Whoami /priv</text>
<text text-anchor="middle" x="325" y="-250.95" font-family="Sans-Serif" font-size="14.00">SeImpersonatePrivilege</text>
</g>
<!-- node_shell_iis&#45;&gt;node_privs -->
<g id="edge14" class="edge">
<title>node_shell_iis&#45;&gt;node_privs</title>
<path fill="none" stroke="#333333" stroke-width="1.2" d="M325,-373.1C325,-373.1 325,-307.89 325,-307.89"/>
<polygon fill="#333333" stroke="#333333" stroke-width="1.2" points="328.5,-307.89 325,-297.89 321.5,-307.89 328.5,-307.89"/>
<text text-anchor="middle" x="348.25" y="-338.1" font-family="Times,serif" font-size="14.00"> Enum</text>
</g>
<!-- node_smb_transfer -->
<g id="node11" class="node">
<title>node_smb_transfer</title>
<path fill="#e5e5e5" stroke="black" d="M652.52,-295.9C652.52,-295.9 519.48,-295.9 519.48,-295.9 513.48,-295.9 507.48,-289.9 507.48,-283.9 507.48,-283.9 507.48,-244.6 507.48,-244.6 507.48,-238.6 513.48,-232.6 519.48,-232.6 519.48,-232.6 652.52,-232.6 652.52,-232.6 658.52,-232.6 664.52,-238.6 664.52,-244.6 664.52,-244.6 664.52,-283.9 664.52,-283.9 664.52,-289.9 658.52,-295.9 652.52,-295.9"/>
<text text-anchor="middle" x="586" y="-268.2" font-family="Sans-Serif" font-size="14.00">Transferencia SMB</text>
<text text-anchor="middle" x="586" y="-250.95" font-family="Sans-Serif" font-size="14.00">SigmaPotato.exe</text>
</g>
<!-- node_privs&#45;&gt;node_smb_transfer -->
<g id="edge7" class="edge">
<title>node_privs&#45;&gt;node_smb_transfer</title>
<path fill="none" stroke="#333333" stroke-width="1.2" d="M421.82,-274C421.82,-274 495.42,-274 495.42,-274"/>
<polygon fill="#333333" stroke="#333333" stroke-width="1.2" points="495.42,-277.5 505.42,-274 495.42,-270.5 495.42,-277.5"/>
</g>
<!-- node_exec_potato -->
<g id="node12" class="node">
<title>node_exec_potato</title>
<path fill="#e5e5e5" stroke="black" d="M398.65,-187.6C398.65,-187.6 251.35,-187.6 251.35,-187.6 245.35,-187.6 239.35,-181.6 239.35,-175.6 239.35,-175.6 239.35,-136.3 239.35,-136.3 239.35,-130.3 245.35,-124.3 251.35,-124.3 251.35,-124.3 398.65,-124.3 398.65,-124.3 404.65,-124.3 410.65,-130.3 410.65,-136.3 410.65,-136.3 410.65,-175.6 410.65,-175.6 410.65,-181.6 404.65,-187.6 398.65,-187.6"/>
<text text-anchor="middle" x="325" y="-159.9" font-family="Sans-Serif" font-size="14.00">SigmaPotato Exploit</text>
<text text-anchor="middle" x="325" y="-142.65" font-family="Sans-Serif" font-size="14.00">Cambiar Pass Admin</text>
</g>
<!-- node_smb_transfer&#45;&gt;node_exec_potato -->
<g id="edge8" class="edge">
<title>node_smb_transfer&#45;&gt;node_exec_potato</title>
<path fill="none" stroke="#333333" stroke-width="1.2" d="M507.18,-253C493.93,-253 484.38,-253 484.38,-253 484.38,-253 484.38,-171 484.38,-171 484.38,-171 422.57,-171 422.57,-171"/>
<polygon fill="#333333" stroke="#333333" stroke-width="1.2" points="422.57,-167.5 412.57,-171 422.57,-174.5 422.57,-167.5"/>
</g>
<!-- node_new_creds -->
<g id="node13" class="node">
<title>node_new_creds</title>
<path fill="#6495ed" stroke="black" d="M641.9,-187.6C641.9,-187.6 508.1,-187.6 508.1,-187.6 502.1,-187.6 496.1,-181.6 496.1,-175.6 496.1,-175.6 496.1,-136.3 496.1,-136.3 496.1,-130.3 502.1,-124.3 508.1,-124.3 508.1,-124.3 641.9,-124.3 641.9,-124.3 647.9,-124.3 653.9,-130.3 653.9,-136.3 653.9,-136.3 653.9,-175.6 653.9,-175.6 653.9,-181.6 647.9,-187.6 641.9,-187.6"/>
<text text-anchor="middle" x="575" y="-159.9" font-family="Sans-Serif" font-size="14.00" fill="white">Credenciais Admin</text>
<text text-anchor="middle" x="575" y="-142.65" font-family="Sans-Serif" font-size="14.00" fill="white">Pass: abc123.</text>
</g>
<!-- node_exec_potato&#45;&gt;node_new_creds -->
<g id="edge9" class="edge">
<title>node_exec_potato&#45;&gt;node_new_creds</title>
<path fill="none" stroke="#333333" stroke-width="1.2" d="M411.04,-155C411.04,-155 484.13,-155 484.13,-155"/>
<polygon fill="#333333" stroke="#333333" stroke-width="1.2" points="484.13,-158.5 494.13,-155 484.13,-151.5 484.13,-158.5"/>
</g>
<!-- node_evilwinrm_admin -->
<g id="node14" class="node">
<title>node_evilwinrm_admin</title>
<path fill="#e5e5e5" stroke="black" d="M460.65,-79.3C460.65,-79.3 361.35,-79.3 361.35,-79.3 355.35,-79.3 349.35,-73.3 349.35,-67.3 349.35,-67.3 349.35,-28 349.35,-28 349.35,-22 355.35,-16 361.35,-16 361.35,-16 460.65,-16 460.65,-16 466.65,-16 472.65,-22 472.65,-28 472.65,-28 472.65,-67.3 472.65,-67.3 472.65,-73.3 466.65,-79.3 460.65,-79.3"/>
<text text-anchor="middle" x="411" y="-51.6" font-family="Sans-Serif" font-size="14.00">Evil&#45;WinRM</text>
<text text-anchor="middle" x="411" y="-34.35" font-family="Sans-Serif" font-size="14.00">Administrator</text>
</g>
<!-- node_new_creds&#45;&gt;node_evilwinrm_admin -->
<g id="edge10" class="edge">
<title>node_new_creds&#45;&gt;node_evilwinrm_admin</title>
<path fill="none" stroke="#333333" stroke-width="1.2" d="M495.81,-140C469.64,-140 447.09,-140 447.09,-140 447.09,-140 447.09,-91.51 447.09,-91.51"/>
<polygon fill="#333333" stroke="#333333" stroke-width="1.2" points="450.59,-91.51 447.09,-81.51 443.59,-91.51 450.59,-91.51"/>
</g>
<!-- node_flag_root -->
<g id="node15" class="node">
<title>node_flag_root</title>
<path fill="#ffad7a" stroke="black" stroke-width="3" d="M653.4,-79.3C653.4,-79.3 570.6,-79.3 570.6,-79.3 564.6,-79.3 558.6,-73.3 558.6,-67.3 558.6,-67.3 558.6,-28 558.6,-28 558.6,-22 564.6,-16 570.6,-16 570.6,-16 653.4,-16 653.4,-16 659.4,-16 665.4,-22 665.4,-28 665.4,-28 665.4,-67.3 665.4,-67.3 665.4,-73.3 659.4,-79.3 653.4,-79.3"/>
<text text-anchor="middle" x="612" y="-51.6" font-family="Sans-Serif" font-size="14.00">Flag</text>
<text text-anchor="middle" x="612" y="-34.35" font-family="Sans-Serif" font-size="14.00">root &amp; user</text>
</g>
<!-- node_evilwinrm_admin&#45;&gt;node_flag_root -->
<g id="edge11" class="edge">
<title>node_evilwinrm_admin&#45;&gt;node_flag_root</title>
<path fill="none" stroke="#333333" stroke-width="1.2" d="M472.95,-47C472.95,-47 545.59,-47 545.59,-47"/>
<polygon fill="#333333" stroke="#333333" stroke-width="1.2" points="545.59,-50.5 555.59,-47 545.59,-43.5 545.59,-50.5"/>
</g>
</g>
</svg>
