<?xml version="1.0" encoding="UTF-8" standalone="no"?>
<!DOCTYPE svg PUBLIC "-//W3C//DTD SVG 1.1//EN"
 "http://www.w3.org/Graphics/SVG/1.1/DTD/svg11.dtd">
<!-- Generated by graphviz version 9.0.0 (20230911.1827)
 -->
<!-- Title: VulNyxLook Pages: 1 -->
<svg width="1051pt" height="1057pt"
 viewBox="0.00 0.00 1051.00 1056.95" xmlns="http://www.w3.org/2000/svg" xmlns:xlink="http://www.w3.org/1999/xlink">
<g id="graph0" class="graph" transform="scale(1 1) rotate(0) translate(4 1052.95)">
<title>VulNyxLook</title>
<polygon fill="white" stroke="none" points="-4,4 -4,-1052.95 1047,-1052.95 1047,4 -4,4"/>
<g id="clust1" class="cluster">
<title>cluster_01</title>
<path fill="#fdfdfd" stroke="#555555" stroke-dasharray="5,2" d="M51,-831.1C51,-831.1 181,-831.1 181,-831.1 187,-831.1 193,-837.1 193,-843.1 193,-843.1 193,-1028.95 193,-1028.95 193,-1034.95 187,-1040.95 181,-1040.95 181,-1040.95 51,-1040.95 51,-1040.95 45,-1040.95 39,-1034.95 39,-1028.95 39,-1028.95 39,-843.1 39,-843.1 39,-837.1 45,-831.1 51,-831.1"/>
<text text-anchor="middle" x="116" y="-1025.55" font-family="Sans-Serif" font-size="12.00">FASE 1: RECOPILACIÓN</text>
</g>
<g id="clust2" class="cluster">
<title>cluster_02</title>
<path fill="#fdfdfd" stroke="#555555" stroke-dasharray="5,2" d="M20,-489.95C20,-489.95 212,-489.95 212,-489.95 218,-489.95 224,-495.95 224,-501.95 224,-501.95 224,-796.1 224,-796.1 224,-802.1 218,-808.1 212,-808.1 212,-808.1 20,-808.1 20,-808.1 14,-808.1 8,-802.1 8,-796.1 8,-796.1 8,-501.95 8,-501.95 8,-495.95 14,-489.95 20,-489.95"/>
<text text-anchor="middle" x="116" y="-792.7" font-family="Sans-Serif" font-size="12.00">FASE 2: ANÁLISE</text>
</g>
<g id="clust3" class="cluster">
<title>cluster_03</title>
<path fill="#fdfdfd" stroke="#555555" stroke-dasharray="5,2" d="M43,-365.4C43,-365.4 527,-365.4 527,-365.4 533,-365.4 539,-371.4 539,-377.4 539,-377.4 539,-454.95 539,-454.95 539,-460.95 533,-466.95 527,-466.95 527,-466.95 43,-466.95 43,-466.95 37,-466.95 31,-460.95 31,-454.95 31,-454.95 31,-377.4 31,-377.4 31,-371.4 37,-365.4 43,-365.4"/>
<text text-anchor="middle" x="285" y="-451.55" font-family="Sans-Serif" font-size="12.00">FASE 3: EXPLOTACIÓN</text>
</g>
<g id="clust5" class="cluster">
<title>cluster_04</title>
<path fill="#fdfdfd" stroke="#555555" stroke-dasharray="5,2" d="M439,-8C439,-8 1023,-8 1023,-8 1029,-8 1035,-14 1035,-20 1035,-20 1035,-314.15 1035,-314.15 1035,-320.15 1029,-326.15 1023,-326.15 1023,-326.15 439,-326.15 439,-326.15 433,-326.15 427,-320.15 427,-314.15 427,-314.15 427,-20 427,-20 427,-14 433,-8 439,-8"/>
<text text-anchor="middle" x="731" y="-310.75" font-family="Sans-Serif" font-size="12.00">FASE 4: POST&#45;EXPLOTACIÓN</text>
</g>
<!-- node_start -->
<g id="node1" class="node">
<title>node_start</title>
<path fill="#e5e5e5" stroke="black" d="M171.28,-1010.7C171.28,-1010.7 60.72,-1010.7 60.72,-1010.7 54.72,-1010.7 48.72,-1004.7 48.72,-998.7 48.72,-998.7 48.72,-959.4 48.72,-959.4 48.72,-953.4 54.72,-947.4 60.72,-947.4 60.72,-947.4 171.28,-947.4 171.28,-947.4 177.28,-947.4 183.28,-953.4 183.28,-959.4 183.28,-959.4 183.28,-998.7 183.28,-998.7 183.28,-1004.7 177.28,-1010.7 171.28,-1010.7"/>
<text text-anchor="middle" x="116" y="-983" font-family="Sans-Serif" font-size="14.00">Descubrimento</text>
<text text-anchor="middle" x="116" y="-965.75" font-family="Sans-Serif" font-size="14.00">Rede</text>
</g>
<!-- node_nmap -->
<g id="node2" class="node">
<title>node_nmap</title>
<path fill="#e5e5e5" stroke="black" d="M163.03,-902.4C163.03,-902.4 68.97,-902.4 68.97,-902.4 62.97,-902.4 56.98,-896.4 56.98,-890.4 56.98,-890.4 56.98,-851.1 56.98,-851.1 56.98,-845.1 62.98,-839.1 68.97,-839.1 68.97,-839.1 163.03,-839.1 163.03,-839.1 169.03,-839.1 175.03,-845.1 175.03,-851.1 175.03,-851.1 175.03,-890.4 175.03,-890.4 175.03,-896.4 169.03,-902.4 163.03,-902.4"/>
<text text-anchor="middle" x="116" y="-874.7" font-family="Sans-Serif" font-size="14.00">Nmap Scan</text>
<text text-anchor="middle" x="116" y="-857.45" font-family="Sans-Serif" font-size="14.00">Ports: 22, 80</text>
</g>
<!-- node_start&#45;&gt;node_nmap -->
<g id="edge1" class="edge">
<title>node_start&#45;&gt;node_nmap</title>
<path fill="none" stroke="#333333" stroke-width="1.2" d="M116,-947.14C116,-947.14 116,-914.62 116,-914.62"/>
<polygon fill="#333333" stroke="#333333" stroke-width="1.2" points="119.5,-914.62 116,-904.62 112.5,-914.62 119.5,-914.62"/>
</g>
<!-- node_gobuster -->
<g id="node3" class="node">
<title>node_gobuster</title>
<path fill="#e5e5e5" stroke="black" d="M150.28,-777.85C150.28,-777.85 81.72,-777.85 81.72,-777.85 75.72,-777.85 69.72,-771.85 69.72,-765.85 69.72,-765.85 69.72,-726.55 69.72,-726.55 69.72,-720.55 75.72,-714.55 81.72,-714.55 81.72,-714.55 150.28,-714.55 150.28,-714.55 156.28,-714.55 162.28,-720.55 162.28,-726.55 162.28,-726.55 162.28,-765.85 162.28,-765.85 162.28,-771.85 156.28,-777.85 150.28,-777.85"/>
<text text-anchor="middle" x="116" y="-750.15" font-family="Sans-Serif" font-size="14.00">Gobuster</text>
<text text-anchor="middle" x="116" y="-732.9" font-family="Sans-Serif" font-size="14.00">info.php</text>
</g>
<!-- node_nmap&#45;&gt;node_gobuster -->
<g id="edge13" class="edge">
<title>node_nmap&#45;&gt;node_gobuster</title>
<path fill="none" stroke="#333333" stroke-width="1.2" d="M116,-838.68C116,-838.68 116,-789.98 116,-789.98"/>
<polygon fill="#333333" stroke="#333333" stroke-width="1.2" points="119.5,-789.98 116,-779.98 112.5,-789.98 119.5,-789.98"/>
</g>
<!-- node_analyze_php -->
<g id="node4" class="node">
<title>node_analyze_php</title>
<path fill="#e5e5e5" stroke="black" d="M182.15,-669.55C182.15,-669.55 49.85,-669.55 49.85,-669.55 43.85,-669.55 37.85,-663.55 37.85,-657.55 37.85,-657.55 37.85,-618.25 37.85,-618.25 37.85,-612.25 43.85,-606.25 49.85,-606.25 49.85,-606.25 182.15,-606.25 182.15,-606.25 188.15,-606.25 194.15,-612.25 194.15,-618.25 194.15,-618.25 194.15,-657.55 194.15,-657.55 194.15,-663.55 188.15,-669.55 182.15,-669.55"/>
<text text-anchor="middle" x="116" y="-641.85" font-family="Sans-Serif" font-size="14.00">Análise info.php</text>
<text text-anchor="middle" x="116" y="-624.6" font-family="Sans-Serif" font-size="14.00">Exposición de Info</text>
</g>
<!-- node_gobuster&#45;&gt;node_analyze_php -->
<g id="edge2" class="edge">
<title>node_gobuster&#45;&gt;node_analyze_php</title>
<path fill="none" stroke="#333333" stroke-width="1.2" d="M116,-714.29C116,-714.29 116,-681.77 116,-681.77"/>
<polygon fill="#333333" stroke="#333333" stroke-width="1.2" points="119.5,-681.77 116,-671.77 112.5,-681.77 119.5,-681.77"/>
</g>
<!-- node_user_leak -->
<g id="node5" class="node">
<title>node_user_leak</title>
<polygon fill="#ffcccc" stroke="black" stroke-dasharray="5,2" points="215.9,-561.25 16.1,-561.25 16.1,-497.95 215.9,-497.95 215.9,-561.25"/>
<text text-anchor="middle" x="116" y="-533.55" font-family="Sans-Serif" font-size="14.00">Usuario Apache Atopado</text>
<text text-anchor="middle" x="116" y="-516.3" font-family="Sans-Serif" font-size="14.00">(Non www&#45;data)</text>
</g>
<!-- node_analyze_php&#45;&gt;node_user_leak -->
<g id="edge3" class="edge">
<title>node_analyze_php&#45;&gt;node_user_leak</title>
<path fill="none" stroke="#333333" stroke-width="1.2" d="M116,-605.99C116,-605.99 116,-573.47 116,-573.47"/>
<polygon fill="#333333" stroke="#333333" stroke-width="1.2" points="119.5,-573.47 116,-563.47 112.5,-573.47 119.5,-573.47"/>
</g>
<!-- node_hydra -->
<g id="node6" class="node">
<title>node_hydra</title>
<path fill="#e5e5e5" stroke="black" d="M181.03,-436.7C181.03,-436.7 50.97,-436.7 50.97,-436.7 44.97,-436.7 38.97,-430.7 38.97,-424.7 38.97,-424.7 38.97,-385.4 38.97,-385.4 38.97,-379.4 44.97,-373.4 50.97,-373.4 50.97,-373.4 181.03,-373.4 181.03,-373.4 187.03,-373.4 193.03,-379.4 193.03,-385.4 193.03,-385.4 193.03,-424.7 193.03,-424.7 193.03,-430.7 187.03,-436.7 181.03,-436.7"/>
<text text-anchor="middle" x="116" y="-409" font-family="Sans-Serif" font-size="14.00">Hydra SSH</text>
<text text-anchor="middle" x="116" y="-391.75" font-family="Sans-Serif" font-size="14.00">(Usuario Atopado)</text>
</g>
<!-- node_user_leak&#45;&gt;node_hydra -->
<g id="edge14" class="edge">
<title>node_user_leak&#45;&gt;node_hydra</title>
<path fill="none" stroke="#333333" stroke-width="1.2" d="M116,-497.53C116,-497.53 116,-448.83 116,-448.83"/>
<polygon fill="#333333" stroke="#333333" stroke-width="1.2" points="119.5,-448.83 116,-438.83 112.5,-448.83 119.5,-448.83"/>
</g>
<!-- node_ssh_login -->
<g id="node7" class="node">
<title>node_ssh_login</title>
<path fill="#6495ed" stroke="black" d="M373.77,-436.7C373.77,-436.7 290.23,-436.7 290.23,-436.7 284.23,-436.7 278.23,-430.7 278.23,-424.7 278.23,-424.7 278.23,-385.4 278.23,-385.4 278.23,-379.4 284.23,-373.4 290.23,-373.4 290.23,-373.4 373.77,-373.4 373.77,-373.4 379.77,-373.4 385.77,-379.4 385.77,-385.4 385.77,-385.4 385.77,-424.7 385.77,-424.7 385.77,-430.7 379.77,-436.7 373.77,-436.7"/>
<text text-anchor="middle" x="332" y="-409" font-family="Sans-Serif" font-size="14.00" fill="white">Shell Inicial</text>
<text text-anchor="middle" x="332" y="-391.75" font-family="Sans-Serif" font-size="14.00" fill="white">Usuario 1</text>
</g>
<!-- node_hydra&#45;&gt;node_ssh_login -->
<g id="edge4" class="edge">
<title>node_hydra&#45;&gt;node_ssh_login</title>
<path fill="none" stroke="#333333" stroke-width="1.2" d="M193.37,-405C193.37,-405 266.02,-405 266.02,-405"/>
<polygon fill="#333333" stroke="#333333" stroke-width="1.2" points="266.02,-408.5 276.02,-405 266.02,-401.5 266.02,-408.5"/>
</g>
<!-- node_flag_user -->
<g id="node8" class="node">
<title>node_flag_user</title>
<path fill="#99ff66" stroke="black" d="M518.77,-436.7C518.77,-436.7 483.23,-436.7 483.23,-436.7 477.23,-436.7 471.23,-430.7 471.23,-424.7 471.23,-424.7 471.23,-385.4 471.23,-385.4 471.23,-379.4 477.23,-373.4 483.23,-373.4 483.23,-373.4 518.77,-373.4 518.77,-373.4 524.77,-373.4 530.77,-379.4 530.77,-385.4 530.77,-385.4 530.77,-424.7 530.77,-424.7 530.77,-430.7 524.77,-436.7 518.77,-436.7"/>
<text text-anchor="middle" x="501" y="-409" font-family="Sans-Serif" font-size="14.00">Flag</text>
<text text-anchor="middle" x="501" y="-391.75" font-family="Sans-Serif" font-size="14.00">user</text>
</g>
<!-- node_ssh_login&#45;&gt;node_flag_user -->
<g id="edge5" class="edge">
<title>node_ssh_login&#45;&gt;node_flag_user</title>
<path fill="none" stroke="#333333" stroke-width="1.2" d="M385.94,-405C385.94,-405 459.33,-405 459.33,-405"/>
<polygon fill="#333333" stroke="#333333" stroke-width="1.2" points="459.33,-408.5 469.33,-405 459.33,-401.5 459.33,-408.5"/>
</g>
<!-- node_env -->
<g id="node9" class="node">
<title>node_env</title>
<path fill="#e5e5e5" stroke="black" d="M555.15,-295.9C555.15,-295.9 446.85,-295.9 446.85,-295.9 440.85,-295.9 434.85,-289.9 434.85,-283.9 434.85,-283.9 434.85,-244.6 434.85,-244.6 434.85,-238.6 440.85,-232.6 446.85,-232.6 446.85,-232.6 555.15,-232.6 555.15,-232.6 561.15,-232.6 567.15,-238.6 567.15,-244.6 567.15,-244.6 567.15,-283.9 567.15,-283.9 567.15,-289.9 561.15,-295.9 555.15,-295.9"/>
<text text-anchor="middle" x="501" y="-268.2" font-family="Sans-Serif" font-size="14.00">Enumeración</text>
<text text-anchor="middle" x="501" y="-250.95" font-family="Sans-Serif" font-size="14.00">Comando &#39;env&#39;</text>
</g>
<!-- node_flag_user&#45;&gt;node_env -->
<g id="edge15" class="edge">
<title>node_flag_user&#45;&gt;node_env</title>
<path fill="none" stroke="#333333" stroke-width="1.2" d="M501,-373.1C501,-373.1 501,-307.89 501,-307.89"/>
<polygon fill="#333333" stroke="#333333" stroke-width="1.2" points="504.5,-307.89 501,-297.89 497.5,-307.89 504.5,-307.89"/>
<text text-anchor="middle" x="546.38" y="-338.1" font-family="Times,serif" font-size="14.00"> Post&#45;Exploit</text>
</g>
<!-- node_env_pass -->
<g id="node10" class="node">
<title>node_env_pass</title>
<polygon fill="#ffcccc" stroke="black" stroke-dasharray="5,2" points="827.52,-295.9 652.48,-295.9 652.48,-232.6 827.52,-232.6 827.52,-295.9"/>
<text text-anchor="middle" x="740" y="-268.2" font-family="Sans-Serif" font-size="14.00">Password en Variable</text>
<text text-anchor="middle" x="740" y="-250.95" font-family="Sans-Serif" font-size="14.00">Usuario 2</text>
</g>
<!-- node_env&#45;&gt;node_env_pass -->
<g id="edge6" class="edge">
<title>node_env&#45;&gt;node_env_pass</title>
<path fill="none" stroke="#333333" stroke-width="1.2" d="M567.57,-264C567.57,-264 640.51,-264 640.51,-264"/>
<polygon fill="#333333" stroke="#333333" stroke-width="1.2" points="640.51,-267.5 650.51,-264 640.51,-260.5 640.51,-267.5"/>
</g>
<!-- node_su_user2 -->
<g id="node11" class="node">
<title>node_su_user2</title>
<path fill="#6495ed" stroke="black" d="M1015.15,-295.9C1015.15,-295.9 924.85,-295.9 924.85,-295.9 918.85,-295.9 912.85,-289.9 912.85,-283.9 912.85,-283.9 912.85,-244.6 912.85,-244.6 912.85,-238.6 918.85,-232.6 924.85,-232.6 924.85,-232.6 1015.15,-232.6 1015.15,-232.6 1021.15,-232.6 1027.15,-238.6 1027.15,-244.6 1027.15,-244.6 1027.15,-283.9 1027.15,-283.9 1027.15,-289.9 1021.15,-295.9 1015.15,-295.9"/>
<text text-anchor="middle" x="970" y="-268.2" font-family="Sans-Serif" font-size="14.00" fill="white">Shell Lateral</text>
<text text-anchor="middle" x="970" y="-250.95" font-family="Sans-Serif" font-size="14.00" fill="white">Usuario 2</text>
</g>
<!-- node_env_pass&#45;&gt;node_su_user2 -->
<g id="edge7" class="edge">
<title>node_env_pass&#45;&gt;node_su_user2</title>
<path fill="none" stroke="#333333" stroke-width="1.2" d="M827.94,-264C827.94,-264 900.87,-264 900.87,-264"/>
<polygon fill="#333333" stroke="#333333" stroke-width="1.2" points="900.87,-267.5 910.87,-264 900.87,-260.5 900.87,-267.5"/>
</g>
<!-- node_sudo_l -->
<g id="node12" class="node">
<title>node_sudo_l</title>
<path fill="#e5e5e5" stroke="black" d="M696.02,-187.6C696.02,-187.6 535.98,-187.6 535.98,-187.6 529.98,-187.6 523.98,-181.6 523.98,-175.6 523.98,-175.6 523.98,-136.3 523.98,-136.3 523.98,-130.3 529.98,-124.3 535.98,-124.3 535.98,-124.3 696.02,-124.3 696.02,-124.3 702.02,-124.3 708.02,-130.3 708.02,-136.3 708.02,-136.3 708.02,-175.6 708.02,-175.6 708.02,-181.6 702.02,-187.6 696.02,-187.6"/>
<text text-anchor="middle" x="616" y="-159.9" font-family="Sans-Serif" font-size="14.00">Sudo &#45;l</text>
<text text-anchor="middle" x="616" y="-142.65" font-family="Sans-Serif" font-size="14.00">(root) /usr/bin/nokogiri</text>
</g>
<!-- node_su_user2&#45;&gt;node_sudo_l -->
<g id="edge8" class="edge">
<title>node_su_user2&#45;&gt;node_sudo_l</title>
<path fill="none" stroke="#333333" stroke-width="1.2" d="M925.5,-232.38C925.5,-220.57 925.5,-210 925.5,-210 925.5,-210 680.25,-210 680.25,-210 680.25,-210 680.25,-199.83 680.25,-199.83"/>
<polygon fill="#333333" stroke="#333333" stroke-width="1.2" points="683.75,-199.83 680.25,-189.83 676.75,-199.83 683.75,-199.83"/>
</g>
<!-- node_gtfobins -->
<g id="node13" class="node">
<title>node_gtfobins</title>
<path fill="#e5e5e5" stroke="black" d="M926.15,-187.6C926.15,-187.6 805.85,-187.6 805.85,-187.6 799.85,-187.6 793.85,-181.6 793.85,-175.6 793.85,-175.6 793.85,-136.3 793.85,-136.3 793.85,-130.3 799.85,-124.3 805.85,-124.3 805.85,-124.3 926.15,-124.3 926.15,-124.3 932.15,-124.3 938.15,-130.3 938.15,-136.3 938.15,-136.3 938.15,-175.6 938.15,-175.6 938.15,-181.6 932.15,-187.6 926.15,-187.6"/>
<text text-anchor="middle" x="866" y="-159.9" font-family="Sans-Serif" font-size="14.00">GTFOBins</text>
<text text-anchor="middle" x="866" y="-142.65" font-family="Sans-Serif" font-size="14.00">Exploit Ruby/IRB</text>
</g>
<!-- node_sudo_l&#45;&gt;node_gtfobins -->
<g id="edge9" class="edge">
<title>node_sudo_l&#45;&gt;node_gtfobins</title>
<path fill="none" stroke="#333333" stroke-width="1.2" d="M708.38,-166C708.38,-166 781.71,-166 781.71,-166"/>
<polygon fill="#333333" stroke="#333333" stroke-width="1.2" points="781.71,-169.5 791.71,-166 781.71,-162.5 781.71,-169.5"/>
</g>
<!-- node_exec_noko -->
<g id="node14" class="node">
<title>node_exec_noko</title>
<path fill="#e5e5e5" stroke="black" d="M655.02,-79.3C655.02,-79.3 530.98,-79.3 530.98,-79.3 524.98,-79.3 518.98,-73.3 518.98,-67.3 518.98,-67.3 518.98,-28 518.98,-28 518.98,-22 524.98,-16 530.98,-16 530.98,-16 655.02,-16 655.02,-16 661.02,-16 667.02,-22 667.02,-28 667.02,-28 667.02,-67.3 667.02,-67.3 667.02,-73.3 661.02,-79.3 655.02,-79.3"/>
<text text-anchor="middle" x="593" y="-51.6" font-family="Sans-Serif" font-size="14.00">Execución</text>
<text text-anchor="middle" x="593" y="-34.35" font-family="Sans-Serif" font-size="14.00">sudo nokogiri file</text>
</g>
<!-- node_gtfobins&#45;&gt;node_exec_noko -->
<g id="edge10" class="edge">
<title>node_gtfobins&#45;&gt;node_exec_noko</title>
<path fill="none" stroke="#333333" stroke-width="1.2" d="M793.39,-145C761.13,-145 730.31,-145 730.31,-145 730.31,-145 730.31,-58 730.31,-58 730.31,-58 679.1,-58 679.1,-58"/>
<polygon fill="#333333" stroke="#333333" stroke-width="1.2" points="679.1,-54.5 669.1,-58 679.1,-61.5 679.1,-54.5"/>
</g>
<!-- node_irb_shell -->
<g id="node15" class="node">
<title>node_irb_shell</title>
<path fill="#e5e5e5" stroke="black" d="M871.4,-79.3C871.4,-79.3 764.6,-79.3 764.6,-79.3 758.6,-79.3 752.6,-73.3 752.6,-67.3 752.6,-67.3 752.6,-28 752.6,-28 752.6,-22 758.6,-16 764.6,-16 764.6,-16 871.4,-16 871.4,-16 877.4,-16 883.4,-22 883.4,-28 883.4,-28 883.4,-67.3 883.4,-67.3 883.4,-73.3 877.4,-79.3 871.4,-79.3"/>
<text text-anchor="middle" x="818" y="-51.6" font-family="Sans-Serif" font-size="14.00">Consola IRB</text>
<text text-anchor="middle" x="818" y="-34.35" font-family="Sans-Serif" font-size="14.00">system(&#39;bash&#39;)</text>
</g>
<!-- node_exec_noko&#45;&gt;node_irb_shell -->
<g id="edge11" class="edge">
<title>node_exec_noko&#45;&gt;node_irb_shell</title>
<path fill="none" stroke="#333333" stroke-width="1.2" d="M667.3,-37C667.3,-37 740.29,-37 740.29,-37"/>
<polygon fill="#333333" stroke="#333333" stroke-width="1.2" points="740.29,-40.5 750.29,-37 740.29,-33.5 740.29,-40.5"/>
</g>
<!-- node_flag_root -->
<g id="node16" class="node">
<title>node_flag_root</title>
<path fill="#ffad7a" stroke="black" stroke-width="3" d="M1015.03,-79.3C1015.03,-79.3 980.98,-79.3 980.98,-79.3 974.98,-79.3 968.98,-73.3 968.98,-67.3 968.98,-67.3 968.98,-28 968.98,-28 968.98,-22 974.98,-16 980.98,-16 980.98,-16 1015.03,-16 1015.03,-16 1021.03,-16 1027.03,-22 1027.03,-28 1027.03,-28 1027.03,-67.3 1027.03,-67.3 1027.03,-73.3 1021.03,-79.3 1015.03,-79.3"/>
<text text-anchor="middle" x="998" y="-51.6" font-family="Sans-Serif" font-size="14.00">Flag</text>
<text text-anchor="middle" x="998" y="-34.35" font-family="Sans-Serif" font-size="14.00">root</text>
</g>
<!-- node_irb_shell&#45;&gt;node_flag_root -->
<g id="edge12" class="edge">
<title>node_irb_shell&#45;&gt;node_flag_root</title>
<path fill="none" stroke="#333333" stroke-width="1.2" d="M883.75,-47C883.75,-47 955.84,-47 955.84,-47"/>
<polygon fill="#333333" stroke="#333333" stroke-width="1.2" points="955.84,-50.5 965.84,-47 955.84,-43.5 955.84,-50.5"/>
</g>
</g>
</svg>
