<?xml version="1.0" encoding="UTF-8" standalone="no"?>
<!DOCTYPE svg PUBLIC "-//W3C//DTD SVG 1.1//EN"
 "http://www.w3.org/Graphics/SVG/1.1/DTD/svg11.dtd">
<!-- Generated by graphviz version 9.0.0 (20230911.1827)
 -->
<!-- Title: VulNyxAgent Pages: 1 -->
<svg width="842pt" height="1057pt"
 viewBox="0.00 0.00 842.00 1056.95" xmlns="http://www.w3.org/2000/svg" xmlns:xlink="http://www.w3.org/1999/xlink">
<g id="graph0" class="graph" transform="scale(1 1) rotate(0) translate(4 1052.95)">
<title>VulNyxAgent</title>
<polygon fill="white" stroke="none" points="-4,4 -4,-1052.95 838,-1052.95 838,4 -4,4"/>
<g id="clust1" class="cluster">
<title>cluster_01</title>
<path fill="#fdfdfd" stroke="#555555" stroke-dasharray="5,2" d="M36,-831.1C36,-831.1 166,-831.1 166,-831.1 172,-831.1 178,-837.1 178,-843.1 178,-843.1 178,-1028.95 178,-1028.95 178,-1034.95 172,-1040.95 166,-1040.95 166,-1040.95 36,-1040.95 36,-1040.95 30,-1040.95 24,-1034.95 24,-1028.95 24,-1028.95 24,-843.1 24,-843.1 24,-837.1 30,-831.1 36,-831.1"/>
<text text-anchor="middle" x="101" y="-1025.55" font-family="Sans-Serif" font-size="12.00">FASE 1: RECOPILACIÓN</text>
</g>
<g id="clust2" class="cluster">
<title>cluster_02</title>
<path fill="#fdfdfd" stroke="#555555" stroke-dasharray="5,2" d="M20,-489.95C20,-489.95 182,-489.95 182,-489.95 188,-489.95 194,-495.95 194,-501.95 194,-501.95 194,-796.1 194,-796.1 194,-802.1 188,-808.1 182,-808.1 182,-808.1 20,-808.1 20,-808.1 14,-808.1 8,-802.1 8,-796.1 8,-796.1 8,-501.95 8,-501.95 8,-495.95 14,-489.95 20,-489.95"/>
<text text-anchor="middle" x="101" y="-792.7" font-family="Sans-Serif" font-size="12.00">FASE 2: ANÁLISE</text>
</g>
<g id="clust3" class="cluster">
<title>cluster_03</title>
<path fill="#fdfdfd" stroke="#555555" stroke-dasharray="5,2" d="M30,-365.4C30,-365.4 365,-365.4 365,-365.4 371,-365.4 377,-371.4 377,-377.4 377,-377.4 377,-454.95 377,-454.95 377,-460.95 371,-466.95 365,-466.95 365,-466.95 30,-466.95 30,-466.95 24,-466.95 18,-460.95 18,-454.95 18,-454.95 18,-377.4 18,-377.4 18,-371.4 24,-365.4 30,-365.4"/>
<text text-anchor="middle" x="197.5" y="-451.55" font-family="Sans-Serif" font-size="12.00">FASE 3: EXPLOTACIÓN</text>
</g>
<g id="clust5" class="cluster">
<title>cluster_04</title>
<path fill="#fdfdfd" stroke="#555555" stroke-dasharray="5,2" d="M240,-8C240,-8 814,-8 814,-8 820,-8 826,-14 826,-20 826,-20 826,-314.15 826,-314.15 826,-320.15 820,-326.15 814,-326.15 814,-326.15 240,-326.15 240,-326.15 234,-326.15 228,-320.15 228,-314.15 228,-314.15 228,-20 228,-20 228,-14 234,-8 240,-8"/>
<text text-anchor="middle" x="527" y="-310.75" font-family="Sans-Serif" font-size="12.00">FASE 4: POST&#45;EXPLOTACIÓN</text>
</g>
<!-- node_start -->
<g id="node1" class="node">
<title>node_start</title>
<path fill="#e5e5e5" stroke="black" d="M156.28,-1010.7C156.28,-1010.7 45.72,-1010.7 45.72,-1010.7 39.72,-1010.7 33.72,-1004.7 33.72,-998.7 33.72,-998.7 33.72,-959.4 33.72,-959.4 33.72,-953.4 39.72,-947.4 45.72,-947.4 45.72,-947.4 156.28,-947.4 156.28,-947.4 162.28,-947.4 168.28,-953.4 168.28,-959.4 168.28,-959.4 168.28,-998.7 168.28,-998.7 168.28,-1004.7 162.28,-1010.7 156.28,-1010.7"/>
<text text-anchor="middle" x="101" y="-983" font-family="Sans-Serif" font-size="14.00">Descubrimento</text>
<text text-anchor="middle" x="101" y="-965.75" font-family="Sans-Serif" font-size="14.00">Rede</text>
</g>
<!-- node_nmap -->
<g id="node2" class="node">
<title>node_nmap</title>
<path fill="#e5e5e5" stroke="black" d="M148.03,-902.4C148.03,-902.4 53.97,-902.4 53.97,-902.4 47.97,-902.4 41.98,-896.4 41.98,-890.4 41.98,-890.4 41.98,-851.1 41.98,-851.1 41.98,-845.1 47.98,-839.1 53.98,-839.1 53.98,-839.1 148.03,-839.1 148.03,-839.1 154.03,-839.1 160.03,-845.1 160.03,-851.1 160.03,-851.1 160.03,-890.4 160.03,-890.4 160.03,-896.4 154.03,-902.4 148.03,-902.4"/>
<text text-anchor="middle" x="101" y="-874.7" font-family="Sans-Serif" font-size="14.00">Nmap Scan</text>
<text text-anchor="middle" x="101" y="-857.45" font-family="Sans-Serif" font-size="14.00">Ports: 22, 80</text>
</g>
<!-- node_start&#45;&gt;node_nmap -->
<g id="edge1" class="edge">
<title>node_start&#45;&gt;node_nmap</title>
<path fill="none" stroke="#333333" stroke-width="1.2" d="M101,-947.14C101,-947.14 101,-914.62 101,-914.62"/>
<polygon fill="#333333" stroke="#333333" stroke-width="1.2" points="104.5,-914.62 101,-904.62 97.5,-914.62 104.5,-914.62"/>
</g>
<!-- node_dirb -->
<g id="node3" class="node">
<title>node_dirb</title>
<path fill="#e5e5e5" stroke="black" d="M132.28,-777.85C132.28,-777.85 69.72,-777.85 69.72,-777.85 63.72,-777.85 57.73,-771.85 57.73,-765.85 57.73,-765.85 57.73,-726.55 57.73,-726.55 57.73,-720.55 63.73,-714.55 69.72,-714.55 69.72,-714.55 132.28,-714.55 132.28,-714.55 138.28,-714.55 144.28,-720.55 144.28,-726.55 144.28,-726.55 144.28,-765.85 144.28,-765.85 144.28,-771.85 138.28,-777.85 132.28,-777.85"/>
<text text-anchor="middle" x="101" y="-750.15" font-family="Sans-Serif" font-size="14.00">Dirb</text>
<text text-anchor="middle" x="101" y="-732.9" font-family="Sans-Serif" font-size="14.00">/websvn</text>
</g>
<!-- node_nmap&#45;&gt;node_dirb -->
<g id="edge12" class="edge">
<title>node_nmap&#45;&gt;node_dirb</title>
<path fill="none" stroke="#333333" stroke-width="1.2" d="M101,-838.68C101,-838.68 101,-789.98 101,-789.98"/>
<polygon fill="#333333" stroke="#333333" stroke-width="1.2" points="104.5,-789.98 101,-779.98 97.5,-789.98 104.5,-789.98"/>
</g>
<!-- node_websvn -->
<g id="node4" class="node">
<title>node_websvn</title>
<path fill="#e5e5e5" stroke="black" d="M153.28,-669.55C153.28,-669.55 48.72,-669.55 48.72,-669.55 42.72,-669.55 36.72,-663.55 36.72,-657.55 36.72,-657.55 36.72,-618.25 36.72,-618.25 36.72,-612.25 42.72,-606.25 48.72,-606.25 48.72,-606.25 153.28,-606.25 153.28,-606.25 159.28,-606.25 165.28,-612.25 165.28,-618.25 165.28,-618.25 165.28,-657.55 165.28,-657.55 165.28,-663.55 159.28,-669.55 153.28,-669.55"/>
<text text-anchor="middle" x="101" y="-641.85" font-family="Sans-Serif" font-size="14.00">WebSVN 2.6.0</text>
<text text-anchor="middle" x="101" y="-624.6" font-family="Sans-Serif" font-size="14.00">Identificado</text>
</g>
<!-- node_dirb&#45;&gt;node_websvn -->
<g id="edge2" class="edge">
<title>node_dirb&#45;&gt;node_websvn</title>
<path fill="none" stroke="#333333" stroke-width="1.2" d="M101,-714.29C101,-714.29 101,-681.77 101,-681.77"/>
<polygon fill="#333333" stroke="#333333" stroke-width="1.2" points="104.5,-681.77 101,-671.77 97.5,-681.77 104.5,-681.77"/>
</g>
<!-- node_vuln -->
<g id="node5" class="node">
<title>node_vuln</title>
<polygon fill="#ffcccc" stroke="black" stroke-dasharray="5,2" points="185.53,-561.25 16.47,-561.25 16.47,-497.95 185.53,-497.95 185.53,-561.25"/>
<text text-anchor="middle" x="101" y="-533.55" font-family="Sans-Serif" font-size="14.00">Vulnerabilidade RCE</text>
<text text-anchor="middle" x="101" y="-516.3" font-family="Sans-Serif" font-size="14.00">Exploit Python</text>
</g>
<!-- node_websvn&#45;&gt;node_vuln -->
<g id="edge3" class="edge">
<title>node_websvn&#45;&gt;node_vuln</title>
<path fill="none" stroke="#333333" stroke-width="1.2" d="M101,-605.99C101,-605.99 101,-573.47 101,-573.47"/>
<polygon fill="#333333" stroke="#333333" stroke-width="1.2" points="104.5,-573.47 101,-563.47 97.5,-573.47 104.5,-573.47"/>
</g>
<!-- node_exec_exploit -->
<g id="node6" class="node">
<title>node_exec_exploit</title>
<path fill="#e5e5e5" stroke="black" d="M164.15,-436.7C164.15,-436.7 37.85,-436.7 37.85,-436.7 31.85,-436.7 25.85,-430.7 25.85,-424.7 25.85,-424.7 25.85,-385.4 25.85,-385.4 25.85,-379.4 31.85,-373.4 37.85,-373.4 37.85,-373.4 164.15,-373.4 164.15,-373.4 170.15,-373.4 176.15,-379.4 176.15,-385.4 176.15,-385.4 176.15,-424.7 176.15,-424.7 176.15,-430.7 170.15,-436.7 164.15,-436.7"/>
<text text-anchor="middle" x="101" y="-409" font-family="Sans-Serif" font-size="14.00">Executar Exploit</text>
<text text-anchor="middle" x="101" y="-391.75" font-family="Sans-Serif" font-size="14.00">python exploit.py</text>
</g>
<!-- node_vuln&#45;&gt;node_exec_exploit -->
<g id="edge13" class="edge">
<title>node_vuln&#45;&gt;node_exec_exploit</title>
<path fill="none" stroke="#333333" stroke-width="1.2" d="M101,-497.53C101,-497.53 101,-448.83 101,-448.83"/>
<polygon fill="#333333" stroke="#333333" stroke-width="1.2" points="104.5,-448.83 101,-438.83 97.5,-448.83 104.5,-448.83"/>
</g>
<!-- node_shell_www -->
<g id="node7" class="node">
<title>node_shell_www</title>
<path fill="#6495ed" stroke="black" d="M356.77,-436.7C356.77,-436.7 273.23,-436.7 273.23,-436.7 267.23,-436.7 261.23,-430.7 261.23,-424.7 261.23,-424.7 261.23,-385.4 261.23,-385.4 261.23,-379.4 267.23,-373.4 273.23,-373.4 273.23,-373.4 356.77,-373.4 356.77,-373.4 362.77,-373.4 368.77,-379.4 368.77,-385.4 368.77,-385.4 368.77,-424.7 368.77,-424.7 368.77,-430.7 362.77,-436.7 356.77,-436.7"/>
<text text-anchor="middle" x="315" y="-409" font-family="Sans-Serif" font-size="14.00" fill="white">Shell Inicial</text>
<text text-anchor="middle" x="315" y="-391.75" font-family="Sans-Serif" font-size="14.00" fill="white">www&#45;data</text>
</g>
<!-- node_exec_exploit&#45;&gt;node_shell_www -->
<g id="edge4" class="edge">
<title>node_exec_exploit&#45;&gt;node_shell_www</title>
<path fill="none" stroke="#333333" stroke-width="1.2" d="M176.45,-405C176.45,-405 248.91,-405 248.91,-405"/>
<polygon fill="#333333" stroke="#333333" stroke-width="1.2" points="248.91,-408.5 258.91,-405 248.91,-401.5 248.91,-408.5"/>
</g>
<!-- node_sudo_c99 -->
<g id="node8" class="node">
<title>node_sudo_c99</title>
<path fill="#e5e5e5" stroke="black" d="M381.9,-295.9C381.9,-295.9 248.1,-295.9 248.1,-295.9 242.1,-295.9 236.1,-289.9 236.1,-283.9 236.1,-283.9 236.1,-244.6 236.1,-244.6 236.1,-238.6 242.1,-232.6 248.1,-232.6 248.1,-232.6 381.9,-232.6 381.9,-232.6 387.9,-232.6 393.9,-238.6 393.9,-244.6 393.9,-244.6 393.9,-283.9 393.9,-283.9 393.9,-289.9 387.9,-295.9 381.9,-295.9"/>
<text text-anchor="middle" x="315" y="-268.2" font-family="Sans-Serif" font-size="14.00">Sudo &#45;l</text>
<text text-anchor="middle" x="315" y="-250.95" font-family="Sans-Serif" font-size="14.00">(user) /usr/bin/c99</text>
</g>
<!-- node_shell_www&#45;&gt;node_sudo_c99 -->
<g id="edge14" class="edge">
<title>node_shell_www&#45;&gt;node_sudo_c99</title>
<path fill="none" stroke="#333333" stroke-width="1.2" d="M315,-373.1C315,-373.1 315,-307.89 315,-307.89"/>
<polygon fill="#333333" stroke="#333333" stroke-width="1.2" points="318.5,-307.89 315,-297.89 311.5,-307.89 318.5,-307.89"/>
<text text-anchor="middle" x="338.25" y="-338.1" font-family="Times,serif" font-size="14.00"> Enum</text>
</g>
<!-- node_gtfobins_c99 -->
<g id="node9" class="node">
<title>node_gtfobins_c99</title>
<path fill="#e5e5e5" stroke="black" d="M606.15,-295.9C606.15,-295.9 491.85,-295.9 491.85,-295.9 485.85,-295.9 479.85,-289.9 479.85,-283.9 479.85,-283.9 479.85,-244.6 479.85,-244.6 479.85,-238.6 485.85,-232.6 491.85,-232.6 491.85,-232.6 606.15,-232.6 606.15,-232.6 612.15,-232.6 618.15,-238.6 618.15,-244.6 618.15,-244.6 618.15,-283.9 618.15,-283.9 618.15,-289.9 612.15,-295.9 606.15,-295.9"/>
<text text-anchor="middle" x="549" y="-268.2" font-family="Sans-Serif" font-size="14.00">GTFOBins</text>
<text text-anchor="middle" x="549" y="-250.95" font-family="Sans-Serif" font-size="14.00">wrapper /bin/sh</text>
</g>
<!-- node_sudo_c99&#45;&gt;node_gtfobins_c99 -->
<g id="edge5" class="edge">
<title>node_sudo_c99&#45;&gt;node_gtfobins_c99</title>
<path fill="none" stroke="#333333" stroke-width="1.2" d="M394.22,-264C394.22,-264 467.84,-264 467.84,-264"/>
<polygon fill="#333333" stroke="#333333" stroke-width="1.2" points="467.84,-267.5 477.84,-264 467.84,-260.5 467.84,-267.5"/>
</g>
<!-- node_shell_user -->
<g id="node10" class="node">
<title>node_shell_user</title>
<path fill="#6495ed" stroke="black" d="M806.15,-295.9C806.15,-295.9 715.85,-295.9 715.85,-295.9 709.85,-295.9 703.85,-289.9 703.85,-283.9 703.85,-283.9 703.85,-244.6 703.85,-244.6 703.85,-238.6 709.85,-232.6 715.85,-232.6 715.85,-232.6 806.15,-232.6 806.15,-232.6 812.15,-232.6 818.15,-238.6 818.15,-244.6 818.15,-244.6 818.15,-283.9 818.15,-283.9 818.15,-289.9 812.15,-295.9 806.15,-295.9"/>
<text text-anchor="middle" x="761" y="-268.2" font-family="Sans-Serif" font-size="14.00" fill="white">Shell Lateral</text>
<text text-anchor="middle" x="761" y="-250.95" font-family="Sans-Serif" font-size="14.00" fill="white">Usuario X</text>
</g>
<!-- node_gtfobins_c99&#45;&gt;node_shell_user -->
<g id="edge6" class="edge">
<title>node_gtfobins_c99&#45;&gt;node_shell_user</title>
<path fill="none" stroke="#333333" stroke-width="1.2" d="M618.42,-264C618.42,-264 691.66,-264 691.66,-264"/>
<polygon fill="#333333" stroke="#333333" stroke-width="1.2" points="691.66,-267.5 701.66,-264 691.66,-260.5 691.66,-267.5"/>
</g>
<!-- node_flag_user -->
<g id="node11" class="node">
<title>node_flag_user</title>
<path fill="#99ff66" stroke="black" d="M431.77,-187.6C431.77,-187.6 396.23,-187.6 396.23,-187.6 390.23,-187.6 384.23,-181.6 384.23,-175.6 384.23,-175.6 384.23,-136.3 384.23,-136.3 384.23,-130.3 390.23,-124.3 396.23,-124.3 396.23,-124.3 431.77,-124.3 431.77,-124.3 437.77,-124.3 443.77,-130.3 443.77,-136.3 443.77,-136.3 443.77,-175.6 443.77,-175.6 443.77,-181.6 437.77,-187.6 431.77,-187.6"/>
<text text-anchor="middle" x="414" y="-159.9" font-family="Sans-Serif" font-size="14.00">Flag</text>
<text text-anchor="middle" x="414" y="-142.65" font-family="Sans-Serif" font-size="14.00">user</text>
</g>
<!-- node_shell_user&#45;&gt;node_flag_user -->
<g id="edge7" class="edge">
<title>node_shell_user&#45;&gt;node_flag_user</title>
<path fill="none" stroke="#333333" stroke-width="1.2" d="M731.91,-232.38C731.91,-220.57 731.91,-210 731.91,-210 731.91,-210 418.84,-210 418.84,-210 418.84,-210 418.84,-199.83 418.84,-199.83"/>
<polygon fill="#333333" stroke="#333333" stroke-width="1.2" points="422.34,-199.83 418.84,-189.83 415.34,-199.83 422.34,-199.83"/>
</g>
<!-- node_sudo_agent -->
<g id="node12" class="node">
<title>node_sudo_agent</title>
<path fill="#e5e5e5" stroke="black" d="M656.9,-187.6C656.9,-187.6 541.1,-187.6 541.1,-187.6 535.1,-187.6 529.1,-181.6 529.1,-175.6 529.1,-175.6 529.1,-136.3 529.1,-136.3 529.1,-130.3 535.1,-124.3 541.1,-124.3 541.1,-124.3 656.9,-124.3 656.9,-124.3 662.9,-124.3 668.9,-130.3 668.9,-136.3 668.9,-136.3 668.9,-175.6 668.9,-175.6 668.9,-181.6 662.9,-187.6 656.9,-187.6"/>
<text text-anchor="middle" x="599" y="-159.9" font-family="Sans-Serif" font-size="14.00">Sudo &#45;l</text>
<text text-anchor="middle" x="599" y="-142.65" font-family="Sans-Serif" font-size="14.00">(root) ssh&#45;agent</text>
</g>
<!-- node_flag_user&#45;&gt;node_sudo_agent -->
<g id="edge8" class="edge">
<title>node_flag_user&#45;&gt;node_sudo_agent</title>
<path fill="none" stroke="#333333" stroke-width="1.2" d="M444.14,-166C444.14,-166 517.08,-166 517.08,-166"/>
<polygon fill="#333333" stroke="#333333" stroke-width="1.2" points="517.08,-169.5 527.08,-166 517.08,-162.5 517.08,-169.5"/>
</g>
<!-- node_gtfobins_agent -->
<g id="node13" class="node">
<title>node_gtfobins_agent</title>
<path fill="#e5e5e5" stroke="black" d="M513.77,-79.3C513.77,-79.3 388.23,-79.3 388.23,-79.3 382.23,-79.3 376.23,-73.3 376.23,-67.3 376.23,-67.3 376.23,-28 376.23,-28 376.23,-22 382.23,-16 388.23,-16 388.23,-16 513.77,-16 513.77,-16 519.77,-16 525.77,-22 525.77,-28 525.77,-28 525.77,-67.3 525.77,-67.3 525.77,-73.3 519.77,-79.3 513.77,-79.3"/>
<text text-anchor="middle" x="451" y="-51.6" font-family="Sans-Serif" font-size="14.00">GTFOBins</text>
<text text-anchor="middle" x="451" y="-34.35" font-family="Sans-Serif" font-size="14.00">ssh&#45;agent /bin/sh</text>
</g>
<!-- node_sudo_agent&#45;&gt;node_gtfobins_agent -->
<g id="edge9" class="edge">
<title>node_sudo_agent&#45;&gt;node_gtfobins_agent</title>
<path fill="none" stroke="#333333" stroke-width="1.2" d="M528.84,-145C514.05,-145 502.81,-145 502.81,-145 502.81,-145 502.81,-91.61 502.81,-91.61"/>
<polygon fill="#333333" stroke="#333333" stroke-width="1.2" points="506.31,-91.61 502.81,-81.61 499.31,-91.61 506.31,-91.61"/>
</g>
<!-- node_shell_root -->
<g id="node14" class="node">
<title>node_shell_root</title>
<path fill="#6495ed" stroke="black" d="M662.27,-79.3C662.27,-79.3 623.73,-79.3 623.73,-79.3 617.73,-79.3 611.73,-73.3 611.73,-67.3 611.73,-67.3 611.73,-28 611.73,-28 611.73,-22 617.73,-16 623.73,-16 623.73,-16 662.27,-16 662.27,-16 668.27,-16 674.27,-22 674.27,-28 674.27,-28 674.27,-67.3 674.27,-67.3 674.27,-73.3 668.27,-79.3 662.27,-79.3"/>
<text text-anchor="middle" x="643" y="-51.6" font-family="Sans-Serif" font-size="14.00" fill="white">Shell</text>
<text text-anchor="middle" x="643" y="-34.35" font-family="Sans-Serif" font-size="14.00" fill="white">root</text>
</g>
<!-- node_gtfobins_agent&#45;&gt;node_shell_root -->
<g id="edge10" class="edge">
<title>node_gtfobins_agent&#45;&gt;node_shell_root</title>
<path fill="none" stroke="#333333" stroke-width="1.2" d="M526.06,-47C526.06,-47 599.55,-47 599.55,-47"/>
<polygon fill="#333333" stroke="#333333" stroke-width="1.2" points="599.55,-50.5 609.55,-47 599.55,-43.5 599.55,-50.5"/>
</g>
<!-- node_flag_root -->
<g id="node15" class="node">
<title>node_flag_root</title>
<path fill="#ffad7a" stroke="black" stroke-width="3" d="M806.02,-79.3C806.02,-79.3 771.98,-79.3 771.98,-79.3 765.98,-79.3 759.98,-73.3 759.98,-67.3 759.98,-67.3 759.98,-28 759.98,-28 759.98,-22 765.98,-16 771.98,-16 771.98,-16 806.02,-16 806.02,-16 812.02,-16 818.02,-22 818.02,-28 818.02,-28 818.02,-67.3 818.02,-67.3 818.02,-73.3 812.02,-79.3 806.02,-79.3"/>
<text text-anchor="middle" x="789" y="-51.6" font-family="Sans-Serif" font-size="14.00">Flag</text>
<text text-anchor="middle" x="789" y="-34.35" font-family="Sans-Serif" font-size="14.00">root</text>
</g>
<!-- node_shell_root&#45;&gt;node_flag_root -->
<g id="edge11" class="edge">
<title>node_shell_root&#45;&gt;node_flag_root</title>
<path fill="none" stroke="#333333" stroke-width="1.2" d="M674.68,-47C674.68,-47 747.06,-47 747.06,-47"/>
<polygon fill="#333333" stroke="#333333" stroke-width="1.2" points="747.06,-50.5 757.06,-47 747.06,-43.5 747.06,-50.5"/>
</g>
</g>
</svg>
